Coordinates
version=1
nRows=24
nColumns=24
inDegrees=yes

Units are S.I. units (second, meters, Newtons, ...)
Angles are in degrees.

endheader
time	pelvis_tilt	pelvis_list	pelvis_rotation	pelvis_tx	pelvis_ty	pelvis_tz	hip_flexion_r	hip_adduction_r	hip_rotation_r	knee_angle_r	ankle_angle_r	subtalar_angle_r	mtp_angle_r	hip_flexion_l	hip_adduction_l	hip_rotation_l	knee_angle_l	ankle_angle_l	subtalar_angle_l	mtp_angle_l	lumbar_extension	lumbar_bending	lumbar_rotation
      0.91700000	      0.81677480	     -6.60121530	     -4.25311653	     -0.20927785	      0.99797925	      0.34049509	    -13.27295000	      8.64392323	     -5.41212725	     -9.61130824	      8.91690118	     -5.91706317	     -3.05975935	     22.47397285	     -7.86406453	     -9.29888598	     -3.34999558	      2.53724214	     -8.49674325	    -11.92807705	    -12.80944334	      7.44376308	      7.67712448
      0.92116667	      0.89129320	     -6.47179316	     -4.40061911	     -0.20329047	      0.99761110	      0.34097182	    -13.49257601	      8.39576615	     -5.35817894	    -10.07203041	      8.98631943	     -5.62822386	     -2.96933950	     22.29950990	     -7.75590147	     -9.21847879	     -3.73061694	      2.26101210	     -8.71565177	    -11.88464351	    -12.85616811	      7.14664208	      7.84158583
      0.92533333	      0.95145414	     -6.33940725	     -4.54034945	     -0.19728953	      0.99728134	      0.34142297	    -13.67853097	      8.14466989	     -5.30379155	    -10.55950656	      9.01169064	     -5.36708257	     -2.86686906	     22.14531752	     -7.64178900	     -9.11305338	     -4.14525330	      1.94327060	     -8.96079392	    -11.83262294	    -12.88724694	      6.84948372	      7.99045786
      0.92950000	      1.00885277	     -6.20212356	     -4.66985927	     -0.19128068	      0.99700524	      0.34183000	    -13.83784772	      7.88449021	     -5.26599430	    -11.08357403	      8.99820733	     -5.10163192	     -2.74630018	     21.99716211	     -7.51752053	     -8.99281054	     -4.58006674	      1.57173315	     -9.23568307	    -11.76951082	    -12.90874618	      6.54780339	      8.13464765
      0.93366667	      1.09032069	     -6.05155139	     -4.77686409	     -0.18527920	      0.99681807	      0.34215861	    -13.99664931	      7.60566092	     -5.25454518	    -11.64470816	      8.94517961	     -4.83066871	     -2.58726479	     21.82611980	     -7.36513761	     -8.83977890	     -5.02595243	      1.15847804	     -9.56463895	    -11.68473397	    -12.96690676	      6.24079224	      8.27084244
      0.93783333	      1.22837408	     -5.90306830	     -4.79505592	     -0.17927998	      0.99674420	      0.34223442	    -14.19384288	      7.32603709	     -5.37536426	    -12.22854694	      8.82809919	     -4.51738643	     -2.13454253	     21.60652035	     -7.16612882	     -8.56557220	     -5.46523645	      0.68258876	     -9.97877033	    -11.43500821	    -13.08318298	      5.95413109	      8.37317553
      0.94200000	      1.20056760	     -5.74387922	     -4.93594615	     -0.17325618	      0.99652617	      0.34260439	    -14.16532445	      7.03792717	     -5.32442197	    -12.91868043	      8.72162895	     -4.31478131	     -1.89637537	     21.56080801	     -7.02880603	     -8.46998106	     -5.96164825	      0.24925129	    -10.31565676	    -11.31268772	    -13.00790084	      5.63786915	      8.43837632
      0.94616667	      1.23656797	     -5.58419500	     -4.99570178	     -0.16723051	      0.99644118	      0.34276469	    -14.18625246	      6.74783372	     -5.38238182	    -13.62376701	      8.54719059	     -4.05376726	     -1.59377271	     21.45598992	     -6.84874506	     -8.28698920	     -6.44193537	     -0.29346433	    -10.73866157	    -11.16172787	    -13.00036086	      5.33557145	      8.51968830
      0.95033333	      1.28206191	     -5.42384176	     -5.02777798	     -0.16121456	      0.99641948	      0.34282479	    -14.18229933	      6.45393692	     -5.47384592	    -14.38360556	      8.32218928	     -3.80198474	     -1.23440861	     21.34724956	     -6.65533604	     -8.08794971	     -6.92693781	     -0.84211800	    -11.17037524	    -10.99087633	    -13.00782407	      5.04260827	      8.55390412
      0.95450000	      1.30028009	     -5.29763546	     -4.96114044	     -0.15524998	      0.99637145	      0.34256622	    -14.10823951	      6.19840245	     -5.70126012	    -15.20529870	      8.03106661	     -3.46374110	     -0.48070902	     21.29185942	     -6.44601560	     -7.71224823	     -7.40949017	     -1.44809971	    -11.68267702	    -10.64710482	    -12.99398381	      4.84231150	      8.55695221
      0.95866667	      1.23039347	     -5.14458479	     -4.97646894	     -0.14917655	      0.99628527	      0.34259162	    -13.91008701	      5.92289918	     -5.81481739	    -16.07500555	      7.59558776	     -3.40808120	      6.56794541	     21.32859865	     -6.27536065	     -7.56954272	     -7.94602292	     -1.94991511	    -12.00852094	     -7.60252979	    -12.85641865	      4.57601343	      8.44186897
      0.96283333	      1.27966970	     -4.96891534	     -5.02767615	     -0.14316305	      0.99647707	      0.34266003	    -13.79547726	      5.59917833	     -5.87629013	    -17.02213006	      7.22109353	     -3.24068756	      6.60430139	     21.19821315	     -6.08437210	     -7.47080661	     -8.42217399	     -2.46283511	    -12.39326630	     -7.58541029	    -12.87302718	      4.26048697	      8.48892832
      0.96700000	      1.27507510	     -4.80507816	     -5.02432684	     -0.13714930	      0.99661096	      0.34256460	    -13.58212000	      5.29325137	     -6.00790904	    -18.03609634	      6.78443653	     -3.05831598	      6.68273389	     21.14341934	     -5.88408988	     -7.30171873	     -8.91509889	     -2.95594079	    -12.79297678	     -7.56284366	    -12.82748092	      3.98540093	      8.48314049
      0.97116667	      1.27633924	     -4.63714334	     -4.98075622	     -0.13114279	      0.99678033	      0.34235050	    -13.33340840	      4.97863808	     -6.19579553	    -19.11493129	      6.29717206	     -2.85549422	      6.81486978	     21.09028447	     -5.66331804	     -7.10861908	     -9.41534170	     -3.41604590	    -13.20161732	     -7.53568753	    -12.78653330	      3.72031817	      8.42923987
      0.97533333	      1.23799738	     -4.47635173	     -4.92332172	     -0.12514254	      0.99693097	      0.34208467	    -12.99879753	      4.67168651	     -6.39444993	    -20.26458183	      5.75169871	     -2.68067770	      7.00529367	     21.08307217	     -5.44855826	     -6.91195219	     -9.92415212	     -3.82656517	    -13.58869377	     -7.50681582	    -12.70263084	      3.47230856	      8.34735663
      0.97950000	      1.19234139	     -4.32783577	     -4.74290146	     -0.11914522	      0.99704558	      0.34146765	    -12.62476617	      4.37554195	     -6.75378915	    -21.45875005	      5.12066650	     -2.43696415	      7.52801154	     21.11134365	     -5.18652339	     -6.55424236	    -10.45458065	     -4.15655530	    -14.01922928	     -7.44738081	    -12.60887662	      3.29354093	      8.16359693
      0.98366667	      1.21173834	     -4.13400649	     -4.77006401	     -0.11311061	      0.99742747	      0.34147238	    -12.27501732	      4.01830566	     -6.82169764	    -22.71629635	      4.42248780	     -2.40288057	      7.64161002	     20.99030106	     -4.99405212	     -6.57184046	    -10.92408795	     -4.40289407	    -14.15676781	     -7.44105766	    -12.58591370	      2.96900330	      8.08451113
      0.98783333	      1.20209328	     -3.93160094	     -4.75514252	     -0.10711340	      0.99776225	      0.34129156	    -11.83828466	      3.63990037	     -6.96589723	    -24.06475311	      3.72513153	     -2.29925028	      7.79414021	     20.90352481	     -4.76427626	     -6.51515884	    -11.38254895	     -4.63517069	    -14.40304645	     -7.43613888	    -12.53140493	      2.66325425	      8.04164489
      0.99200000	      1.10298373	     -3.73180018	     -4.65646857	     -0.10120004	      0.99790148	      0.34082082	    -11.24295144	      3.25875486	     -7.23090532	    -25.53066999	      3.11896955	     -2.10188926	      8.14150581	     20.94872972	     -4.49469090	     -6.33256247	    -11.86977824	     -4.92136455	    -14.81148628	     -7.43425593	    -12.38564989	      2.40184252	      7.93573821
      0.99616667	      1.15356772	     -3.53085306	     -4.58820343	     -0.09520228	      0.99835813	      0.34053836	    -10.81336697	      2.87408051	     -7.40609358	    -26.94344367	      2.25956803	     -2.07739114	      8.26759922	     20.78569995	     -4.25133998	     -6.28085291	    -12.31841546	     -4.92918474	    -14.87668958	     -7.43445790	    -12.39832536	      2.12106195	      7.82872782
      1.00033333	      1.01052736	     -3.31335854	     -4.44711501	     -0.08935335	      0.99840939	      0.33987858	    -10.08340939	      2.45224390	     -7.71747682	    -28.54288253	      1.61278939	     -1.83012314	      8.81750704	     20.87086776	     -3.93702330	     -6.03613278	    -12.78957286	     -5.07046761	    -15.33140093	     -7.46122462	    -12.20560716	      1.86654600	      7.62837682
      1.00450000	      1.05769509	     -3.06205477	     -4.37519415	     -0.08335789	      0.99888894	      0.33959592	     -9.57350407	      2.00047829	     -7.89329061	    -30.06445696	      0.74895848	     -1.85344970	      8.94542871	     20.67621617	     -3.64508858	     -6.03761041	    -13.17125230	     -5.05796258	    -15.30421978	     -7.46926182	    -12.20850881	      1.52956701	      7.49814986
      1.00866667	      0.90027462	     -2.81159234	     -4.26341052	     -0.07758232	      0.99891336	      0.33900205	     -8.74659570	      1.52842119	     -8.13666907	    -31.77458053	      0.11123533	     -1.63022394	      9.50069592	     20.75163106	     -3.31473891	     -5.87602241	    -13.61029904	     -5.09381098	    -15.66600155	     -7.53181724	    -12.00534445	      1.23335942	      7.31567271
      1.01283333	      0.96657273	     -2.53433160	     -4.17241881	     -0.07164958	      0.99940141	      0.33865403	     -8.19295540	      1.03473364	     -8.31072136	    -33.37532254	     -0.72179379	     -1.66569208	      9.60263105	     20.51697219	     -2.98652573	     -5.89210177	    -13.95395331	     -4.98509577	    -15.59939411	     -7.54399767	    -12.02962589	      0.87846853	      7.17389229
